inDegrees=yes
name=ik_S49_A02_T01
DataType=double
version=3
OpenSimVersion=4.3-2021-08-27-4bc7ad9
endheader
time	pelvis_tilt	pelvis_list	pelvis_rotation	pelvis_tx	pelvis_ty	pelvis_tz	hip_flexion_r	hip_adduction_r	hip_rotation_r	knee_angle_r	knee_angle_r_beta	ankle_angle_r	subtalar_angle_r	mtp_angle_r	hip_flexion_l	hip_adduction_l	hip_rotation_l	knee_angle_l	knee_angle_l_beta	ankle_angle_l	subtalar_angle_l	mtp_angle_l	lumbar_extension	lumbar_bending	lumbar_rotation	arm_flex_r	arm_add_r	arm_rot_r	elbow_flex_r	pro_sup_r	wrist_flex_r	wrist_dev_r	arm_flex_l	arm_add_l	arm_rot_l	elbow_flex_l	pro_sup_l	wrist_flex_l	wrist_dev_l
52.4800000000026	-0.5862225153359883	-0.7890009381274511	96.32667389365885	0	0.9399999999999999	0	-3.352605880292586	8.165928959146331	0.1428810766590158	-4.345258309752451	-0.07583906435482389	0	0	0	5.41390106599001	-0.4631363744664547	-9.199725609378897	10.2061540976857	0.1781309929705264	0	0	0	0	0	0	41.81537597891204	-41.81537597891204	4.955379947324054	84.40202766166986	85.04462032530341	0	0	41.81537597891204	-41.81537597891204	4.955379947324054	84.40202766166986	85.04462032529587	0	0
52.50000000000261	-0.6131493167925143	-0.6841747594573803	96.7781862792572	0	0.9399999999999999	0	-3.076076245398309	8.035352760683317	0.1626181888645664	-4.278172909740829	-0.07466820324460366	0	0	0	5.284686064247259	-0.3332137867357569	-8.795639652457787	9.336336324845037	0.1629498089420928	0	0	0	0	0	0	41.8161646922922	-41.8161646922922	4.955402204786724	84.40232595593528	85.04459806784168	0	0	41.8161646922922	-41.8161646922922	4.955402204786724	84.40232595593528	85.04459806783412	0	0
52.52000000000261	-0.8042056428339267	-0.6720094682688412	97.48006621700492	0	0.9399999999999999	0	-2.885590566087876	7.680698248181679	-0.7115159594887593	-4.28758068183079	-0.0748323998428507	0	0	0	4.448757933038064	0.4967567635784609	-1.324573821602603	5.644146491675965	0.0985089397446323	0	0	0	0	0	0	41.82000903920258	-41.82000903920258	4.955507643966799	84.40373904524228	85.04449262866579	0	0	41.82000903920258	-41.82000903920258	4.955507643966799	84.40373904524228	85.04449262865832	0	0
52.54000000000261	-0.7263726927648104	-0.7101793904969947	97.48594295458093	0	0.9399999999999999	0	-2.644370169049254	7.641181634322136	-1.045374920682439	-4.166366136455739	-0.072716806924748	0	0	0	3.969013495239886	0.3641640045485101	-0.4123149295614373	4.87188290783384	0.08503039751333595	0	0	0	0	0	0	41.82079924952552	-41.82079924952552	4.955529933032133	84.40403776297859	85.04447033960135	0	0	41.82079924952552	-41.82079924952552	4.955529933032133	84.40403776297859	85.04447033959387	0	0
52.56000000000262	-0.531486634382223	-0.7715751956888847	97.18240854522776	0	0.9399999999999999	0	-2.419760137953179	7.776380918209695	-1.087210235167293	-4.189007442561953	-0.07311197226325332	0	0	0	3.287608799954088	0.3663321006721464	-4.900149051413974	4.44050726189001	0.07750147217869881	0	0	0	0	0	0	41.82706814343372	-41.82706814343372	4.955686953653396	84.4061421211717	85.04431331898624	0	0	41.82706814343372	-41.82706814343372	4.955686953653396	84.4061421211717	85.04431331897882	0	0
52.58000000000262	-0.4280720270157768	-0.7764694066221474	96.95801435232183	0	0.9399999999999999	0	-2.420800757525256	7.851173255479307	-0.9190696481924757	-4.284529627097283	-0.07477914889209246	0	0	0	3.135831049366104	-0.100501541165311	-8.242797076028703	4.955235364629383	0.0864851723240445	0	0	0	0	0	0	41.83277719507696	-41.83277719507696	4.955827043689194	84.40801957425413	85.04417322895596	0	0	41.83277719507696	-41.83277719507696	4.955827043689194	84.40801957425413	85.04417322894855	0	0
52.60000000000262	-0.2802713257128132	-0.7878355221070916	96.47292727562143	0	0.9399999999999999	0	-2.23913742364414	7.984850423580678	-0.8567621871871474	-4.319913460528111	-0.07539671328743765	0	0	0	2.502771141691937	-0.6122380194489234	-6.404234641950276	2.68055619619734	0.04678453140837869	0	0	0	0	0	0	41.83218754155011	-41.83218754155011	4.955820330561428	84.40792961942691	85.0441799420835	0	0	41.83218754155011	-41.83218754155011	4.955820330561428	84.40792961942691	85.04417994207613	0	0
52.62000000000263	-0.2223032722835007	-0.7693513801721426	95.58921681541187	0	0.9399999999999999	0	-1.986738425347602	7.787926359095263	-1.315294471081536	-3.881366048465666	-0.06774261702084768	0	0	0	1.892896327816298	0.968716689355547	-4.882287196613338	0.9053991351866827	0.01580219595371686	0	0	0	0	0	0	41.83526489550343	-41.83526489550343	4.955898241175098	84.40897376287769	85.04410203147289	0	0	41.83526489550343	-41.83526489550343	4.955898241175098	84.40897376287769	85.04410203146553	0	0
52.64000000000263	-0.1708232247579611	-0.7677725727980401	95.19769898452232	0	0.9399999999999999	0	-1.636692956125736	7.95418495176506	-1.151489575988177	-3.447636816924056	-0.06017261386830174	0	0	0	1.554412378087716	0.9167849525378623	-4.396515546072685	-0.1179357148443189	-0.002058366529726517	0	0	0	0	0	0	41.83602614757687	-41.83602614757687	4.955919616104316	84.40926022909292	85.04408065654458	0	0	41.83602614757687	-41.83602614757687	4.955919616104316	84.40926022909292	85.04408065653723	0	0
52.66000000000263	-0.11127002922398	-0.718042461641321	94.86889497611655	0	0.9399999999999999	0	-1.73318403508447	7.99466637586786	-0.8167437677538061	-3.449045940527605	-0.06019720771475123	0	0	0	1.35021638021241	0.7683989744394082	-4.872921290060392	-0.4128867970969176	-0.007206234047354976	0	0	0	0	0	0	41.83648300368886	-41.83648300368886	4.955932122140575	84.40942783417381	85.04406815050886	0	0	41.83648300368886	-41.83648300368886	4.955932122140575	84.40942783417381	85.04406815050153	0	0
52.68000000000264	-0.08254437474496003	-0.6845714491912497	94.73058619220716	0	0.9399999999999999	0	-1.349892106689351	7.936092175863561	-1.2613191800156	-3.109427060085406	-0.05426974004909789	0	0	0	1.266479371758106	0.9880389956413271	-5.158283373255995	-0.6177542425494198	-0.01078184550065102	0	0	0	0	0	0	41.837093504815	-41.837093504815	4.955949239194888	84.40965723642097	85.04405103345525	0	0	41.837093504815	-41.837093504815	4.955949239194888	84.40965723642097	85.0440510334479	0	0
52.70000000000264	0.05840851210682836	-0.60186600150488	94.45639326527041	0	0.9399999999999999	0	-1.347539730162685	8.057685986694043	-1.057917812619966	-3.077775610269845	-0.05371731803678659	0	0	0	1.161721948219417	0.8345628197106487	-5.237199938355124	-0.7410433333870714	-0.01293364606755842	0	0	0	0	0	0	41.83743968324569	-41.83743968324569	4.955958924856311	84.40978704333102	85.04404134779419	0	0	41.83743968324569	-41.83743968324569	4.955958924856311	84.40978704333102	85.04404134778684	0	0
52.72000000000264	0.1894129693638874	-0.4635017990750037	94.18827057855312	0	0.9399999999999999	0	-1.410100854241646	8.09742842124818	-0.8572517747449218	-3.056771720128903	-0.05335073099809998	0	0	0	1.044163385867653	0.7730599278285242	-5.527735342775537	-0.6479047992515458	-0.01130807198641237	0	0	0	0	0	0	41.83764307111029	-41.83764307111029	4.955964566798086	84.40986265637392	85.04403570585258	0	0	41.83764307111029	-41.83764307111029	4.955964566798086	84.40986265637392	85.04403570584523	0	0
52.74000000000265	0.3008540143348002	-0.3964777618838825	93.93342342247807	0	0.9399999999999999	0	-1.491352413477582	8.047178300657151	-0.9486977796057714	-3.064184725803874	-0.05348011235459725	0	0	0	1.064687206429733	0.7143212814331171	-5.609250769912084	-0.6350688257619123	-0.01108404198631955	0	0	0	0	0	0	41.83771732265694	-41.83771732265694	4.955966625174964	84.40989024264337	85.04403364747579	0	0	41.83771732265694	-41.83771732265694	4.955966625174964	84.40989024264337	85.04403364746845	0	0
52.76000000000265	0.4078302673663851	-0.2571349367696222	93.62610089640927	0	0.9399999999999999	0	-1.668237123346874	8.14737456660801	-1.021095416571586	-3.057744901543197	-0.05336771621799864	0	0	0	0.9253103890866938	0.6952031319586678	-5.22493458452726	-0.5880236888161133	-0.01026294944956373	0	0	0	0	0	0	41.83798073078029	-41.83798073078029	4.955974004604802	84.40998914152698	85.04402626804627	0	0	41.83798073078029	-41.83798073078029	4.955974004604802	84.40998914152698	85.04402626803892	0	0
52.78000000000265	0.4420712742477337	-0.1958952134801976	93.44574581601614	0	0.9399999999999999	0	-1.618360832673118	8.261225952762281	-1.117975806478154	-3.016473931843936	-0.05264740191125571	0	0	0	0.8659242565512458	0.7504400230244164	-4.700955525486466	-0.6189406916190056	-0.01080255294332252	0	0	0	0	0	0	41.83826551401221	-41.83826551401221	4.955981985838442	84.41009610576911	85.04401828681299	0	0	41.83826551401221	-41.83826551401221	4.955981985838442	84.41009610576911	85.04401828680564	0	0
